<svg xmlns="http://www.w3.org/2000/svg" viewBox="0 0 100 100" aria-label="Seung Logo">
  <defs>
    <linearGradient id="logoGradient" x1="0%" y1="0%" x2="100%" y2="100%">
      <stop offset="0%" style="stop-color:#059669;stop-opacity:1" />
      <stop offset="100%" style="stop-color:#34d399;stop-opacity:1" />
    </linearGradient>
  </defs>
  
  <!-- Modern minimalist "S" -->
  <path d="M 25 20
           C 15 20, 15 28, 20 33
           C 22 36, 25 37, 28 37
           L 32 37
           C 38 37, 42 41, 42 47
           C 42 52, 38 56, 33 56
           L 28 56
           C 18 56, 18 64, 23 69
           C 28 74, 38 74, 48 74
           L 52 74
           C 62 74, 62 66, 57 61
           C 55 58, 52 57, 49 57
           L 45 57
           C 39 57, 35 53, 35 47
           C 35 42, 39 38, 44 38
           L 49 38
           C 59 38, 59 30, 54 25
           C 49 20, 39 20, 29 20
           Z" 
        fill="url(#logoGradient)"/>
  
  <!-- Subtle accent dot -->
  <circle cx="75" cy="30" r="4" fill="url(#logoGradient)" opacity="0.4"/>
  <circle cx="70" cy="75" r="3" fill="url(#logoGradient)" opacity="0.3"/>
</svg>
